<svg width="24" height="24" viewBox="0 0 24 24" fill="none" xmlns="http://www.w3.org/2000/svg">
<path d="M8.65781 16.5535L8.65765 16.5519C8.64448 16.4169 8.74312 16.292 8.88742 16.2782L8.88977 16.278C9.01157 16.2658 9.14837 16.3712 9.16229 16.5081C9.31335 18.1411 9.78432 19.3793 10.8052 20.1854C11.8078 20.9771 13.2422 21.2705 15.12 21.2705H15.25C17.3196 21.2705 18.8704 20.9097 19.8848 19.8953C20.8992 18.8809 21.26 17.3301 21.26 15.2605V8.74047C21.26 6.67083 20.8992 5.12004 19.8848 4.10567C18.8704 3.09129 17.3196 2.73047 15.25 2.73047H15.12C13.2318 2.73047 11.7903 3.02891 10.7867 3.8358C9.76815 4.65476 9.30413 5.91081 9.16275 7.56705C9.13991 7.72693 9.01292 7.81467 8.88742 7.80272L8.88743 7.80258L8.87564 7.80174C8.74625 7.7925 8.63893 7.6768 8.64852 7.52927C8.8121 5.62177 9.40024 4.33067 10.4001 3.50315C11.4112 2.66629 12.9301 2.23047 15.11 2.23047H15.24C17.6375 2.23047 19.23 2.74509 20.2327 3.74777C21.2354 4.75045 21.75 6.34299 21.75 8.74047V15.2605C21.75 17.6579 21.2354 19.2505 20.2327 20.2532C19.23 21.2558 17.6375 21.7705 15.24 21.7705H15.11C12.9445 21.7705 11.4341 21.3419 10.4249 20.5181C9.42686 19.7034 8.83515 18.4324 8.65781 16.5535Z" fill="#292D32" stroke="#191D23"/>
<path d="M15.0001 12.25H3.62012C3.48626 12.25 3.37012 12.1339 3.37012 12C3.37012 11.8661 3.48626 11.75 3.62012 11.75H15.0001C15.134 11.75 15.2501 11.8661 15.2501 12C15.2501 12.1339 15.134 12.25 15.0001 12.25Z" fill="#292D32" stroke="#191D23"/>
<path d="M5.84994 16.0998C5.65994 16.0998 5.46994 16.0298 5.31994 15.8798L1.96994 12.5298C1.67994 12.2398 1.67994 11.7598 1.96994 11.4698L5.31994 8.11984C5.60994 7.82984 6.08994 7.82984 6.37994 8.11984C6.66994 8.40984 6.66994 8.88984 6.37994 9.17984L3.55994 11.9998L6.37994 14.8198C6.66994 15.1098 6.66994 15.5898 6.37994 15.8798C6.23994 16.0298 6.03994 16.0998 5.84994 16.0998Z" fill="#292D32"/>
</svg>
