<svg width="24" height="24" viewBox="0 0 24 24" fill="none" xmlns="http://www.w3.org/2000/svg">
<path d="M9.33002 19.99L9.33038 19.9905L10.34 21.34C10.3401 21.3401 10.3401 21.3401 10.3402 21.3402C10.3914 21.4084 10.4601 21.44 10.54 21.44C10.5963 21.44 10.6484 21.4268 10.7011 21.3892C10.8133 21.3016 10.8302 21.1459 10.7515 21.0419L10.7511 21.0414L9.7311 19.6914L9.72927 19.689C9.34119 19.1688 8.77392 18.8607 8.19304 18.8293C7.605 18.798 7.02366 19.0386 6.56377 19.5231C6.56346 19.5234 6.56316 19.5237 6.56285 19.524L6.20004 19.18L9.33002 19.99ZM9.33002 19.99C9.04543 19.6105 8.63875 19.3621 8.17331 19.3311L8.17224 19.331M9.33002 19.99L8.17224 19.331M8.17224 19.331C7.67834 19.2992 7.25271 19.5273 6.93932 19.8537L6.93929 19.8537M8.17224 19.331L6.93929 19.8537M6.93929 19.8537L6.93488 19.8584M6.93929 19.8537L6.93488 19.8584M6.93488 19.8584C6.25724 20.5828 5.69816 20.8757 5.28886 20.9824M6.93488 19.8584L5.28886 20.9824M5.28886 20.9824C4.88594 21.0875 4.58601 21.0233 4.39902 20.9531M5.28886 20.9824L4.39902 20.9531M4.39902 20.9531C4.21724 20.882 3.94762 20.7218 3.71759 20.3505C3.48372 19.9729 3.27002 19.3431 3.27002 18.3V7.04001C3.27002 4.83333 3.59668 3.5644 4.29711 2.82349C4.98909 2.09153 6.1674 1.75 8.24002 1.75H15.79C17.8627 1.75 19.041 2.09153 19.733 2.82349C20.4334 3.5644 20.76 4.83333 20.76 7.04001V11.3C20.76 11.4338 20.6439 11.55 20.51 11.55C20.3762 11.55 20.26 11.4338 20.26 11.3V7.04001C20.26 6.12954 20.2209 5.37116 20.1002 4.75117C19.9788 4.12783 19.7678 3.60492 19.3945 3.20162C19.0179 2.79475 18.5229 2.55978 17.9302 2.42509C17.3455 2.2922 16.6345 2.25 15.79 2.25H8.24002C7.39554 2.25 6.68461 2.2922 6.09985 2.42509C5.50713 2.55978 5.01215 2.79475 4.63557 3.20162C4.2623 3.60492 4.05122 4.12783 3.92986 4.75117C3.80915 5.37116 3.77002 6.12954 3.77002 7.04001V18.3C3.77002 18.8623 3.83917 19.3255 3.95527 19.6769C4.01317 19.8521 4.08715 20.0129 4.18038 20.1467C4.26872 20.2735 4.4016 20.4149 4.59143 20.487L4.39902 20.9531Z" fill="#292D32" stroke="#191D23"/>
<path d="M16 7.25H8C7.86614 7.25 7.75 7.13386 7.75 7C7.75 6.86614 7.86614 6.75 8 6.75H16C16.1339 6.75 16.25 6.86614 16.25 7C16.25 7.13386 16.1339 7.25 16 7.25Z" fill="#292D32" stroke="#191D23"/>
<path d="M15 11.75H9C8.59 11.75 8.25 11.41 8.25 11C8.25 10.59 8.59 10.25 9 10.25H15C15.41 10.25 15.75 10.59 15.75 11C15.75 11.41 15.41 11.75 15 11.75Z" fill="#292D32"/>
<path d="M14.8201 21.7796C14.4401 21.7796 14.0801 21.6396 13.8201 21.3796C13.5101 21.0696 13.3701 20.6196 13.4401 20.1496L13.6301 18.7996C13.6801 18.4496 13.8901 18.0296 14.1401 17.7796L17.68 14.2396C18.16 13.7596 18.6301 13.5096 19.1401 13.4596C19.7601 13.3996 20.38 13.6596 20.96 14.2396C21.54 14.8196 21.8 15.4296 21.74 16.0596C21.69 16.5596 21.43 17.0396 20.96 17.5196L17.4201 21.0596C17.1701 21.3096 16.75 21.5196 16.4 21.5696L15.05 21.7596C14.97 21.7696 14.9001 21.7796 14.8201 21.7796ZM19.31 14.9496C19.3 14.9496 19.29 14.9496 19.28 14.9496C19.14 14.9596 18.95 15.0896 18.74 15.2996L15.2001 18.8396C15.1701 18.8696 15.12 18.9696 15.12 19.0096L14.9401 20.2596L16.1901 20.0796C16.2301 20.0696 16.33 20.0196 16.36 19.9896L19.9 16.4496C20.11 16.2296 20.24 16.0496 20.2501 15.9096C20.2701 15.7096 20.07 15.4696 19.9 15.2996C19.74 15.1396 19.51 14.9496 19.31 14.9496Z" fill="#292D32"/>
<path d="M19.9201 18.2499C19.8501 18.2499 19.7801 18.2399 19.7201 18.2199C18.4001 17.8499 17.3501 16.7999 16.9801 15.4799C16.8701 15.0799 17.1001 14.6699 17.5001 14.5499C17.9001 14.4399 18.3101 14.6699 18.4201 15.0699C18.6501 15.8899 19.3001 16.5399 20.1201 16.7699C20.5201 16.8799 20.7501 17.2999 20.6401 17.6999C20.5501 18.0299 20.2501 18.2499 19.9201 18.2499Z" fill="#292D32"/>
</svg>
