<svg width="24" height="24" viewBox="0 0 24 24" fill="none" xmlns="http://www.w3.org/2000/svg">
<path d="M6.16222 6.81612L6.16223 6.81619L6.17071 6.81498C6.43553 6.77715 6.72074 6.75 7 6.75H17C17.2278 6.75 17.509 6.75966 17.7928 6.804L17.8028 6.80556L17.8128 6.80671C19.1721 6.96338 20.2736 7.55318 21.0369 8.442C21.8013 9.33208 22.25 10.5499 22.25 12V17C22.25 18.6055 21.7131 19.9098 20.8114 20.8114C19.9098 21.7131 18.6055 22.25 17 22.25H7C5.39454 22.25 4.09024 21.7131 3.18855 20.8114C2.28687 19.9098 1.75 18.6055 1.75 17V12C1.75 10.5643 2.19158 9.356 2.94909 8.46832C3.70557 7.58183 4.80092 6.98686 6.16222 6.81612ZM7 7.25C6.73234 7.25 6.47997 7.2723 6.23608 7.30409C5.02703 7.45814 4.02037 7.981 3.31806 8.81232C2.61715 9.64197 2.25 10.7422 2.25 12V17C2.25 18.3999 2.70525 19.5974 3.55395 20.4461C4.40264 21.2947 5.60011 21.75 7 21.75H17C18.3999 21.75 19.5974 21.2947 20.4461 20.4461C21.2947 19.5974 21.75 18.3999 21.75 17V12C21.75 10.7317 21.3775 9.62315 20.668 8.79069C19.9593 7.959 18.9452 7.4397 17.73 7.2948C17.454 7.24997 17.2132 7.24999 17.0107 7.25L17 7.25H7Z" fill="#292D32" stroke="#191D23"/>
<path d="M5.96366 6.95112L5.96371 6.95115L5.96726 6.94405C6.11099 6.65659 6.31671 6.37205 6.58776 6.10974L6.58781 6.1098L6.59414 6.10345L9.84253 2.84505C9.84278 2.8448 9.84304 2.84455 9.84329 2.8443C11.3078 1.38938 13.6912 1.38914 15.1561 2.84357L16.9045 4.61199L16.9045 4.61201L16.9089 4.6164C17.562 5.26063 17.9564 6.12268 18.0006 7.03308C18.004 7.11855 17.9708 7.19001 17.9192 7.23551C17.8558 7.29146 17.7784 7.30923 17.7195 7.29851L17.7119 7.29713L17.7042 7.29598C17.4708 7.26096 17.2339 7.25044 17 7.25044H7.00005C6.73212 7.25044 6.47949 7.27279 6.23538 7.30463L6.19086 7.31043L6.19005 7.31044C6.11149 7.31044 6.03872 7.27784 5.98116 7.20191C5.92769 7.12856 5.92037 7.03435 5.96366 6.95112ZM7.50453 5.89886L6.66238 6.75044H7.86005H16.82H17.5465L17.2871 6.07187C17.1287 5.6577 16.8766 5.29013 16.5546 4.96793C16.5543 4.96759 16.5539 4.96724 16.5536 4.96689L14.7956 3.1889L14.7956 3.18888L14.7919 3.18524C13.5262 1.93129 11.4634 1.93362 10.1898 3.18361L10.1898 3.18357L10.1845 3.18887L7.50453 5.89886Z" fill="#292D32" stroke="#191D23"/>
<path d="M22 17.25H19C17.48 17.25 16.25 16.02 16.25 14.5C16.25 12.98 17.48 11.75 19 11.75H22C22.41 11.75 22.75 12.09 22.75 12.5C22.75 12.91 22.41 13.25 22 13.25H19C18.31 13.25 17.75 13.81 17.75 14.5C17.75 15.19 18.31 15.75 19 15.75H22C22.41 15.75 22.75 16.09 22.75 16.5C22.75 16.91 22.41 17.25 22 17.25Z" fill="#292D32"/>
</svg>
