<svg width="24" height="24" viewBox="0 0 24 24" fill="none" xmlns="http://www.w3.org/2000/svg">
<path d="M23.9998 12.2729C24.0009 11.4552 23.9303 10.6389 23.789 9.83301H12.2427V14.4545H18.8559C18.7205 15.1927 18.4341 15.8963 18.0139 16.523C17.5936 17.1497 17.0482 17.6865 16.4106 18.1011V21.101H20.3574C22.6684 19.0127 23.9998 15.9245 23.9998 12.2729Z" fill="#4285F4"/>
<path d="M12.2429 23.9999C15.547 23.9999 18.329 22.9366 20.3577 21.1033L16.4108 18.1034C15.3123 18.8334 13.8975 19.2501 12.2429 19.2501C9.04943 19.2501 6.33885 17.1401 5.36957 14.2969H1.30371V17.3885C2.32276 19.3759 3.88535 21.0466 5.81704 22.214C7.74873 23.3815 9.97349 23.9998 12.2429 23.9999Z" fill="#47C272"/>
<path d="M5.36958 14.2971C4.85716 12.8072 4.85716 11.1938 5.36958 9.70388V6.6123H1.30372C0.446459 8.28418 0 10.1294 0 12.0005C0 13.8716 0.446459 15.7168 1.30372 17.3887L5.36958 14.2971Z" fill="#FBBC04"/>
<path d="M12.2429 4.75065C13.989 4.72269 15.6761 5.36926 16.9397 6.5506L20.4342 3.1257C18.2183 1.08588 15.2828 -0.0340102 12.2429 0.00078729C9.97349 0.000888662 7.74873 0.619194 5.81704 1.78667C3.88535 2.95415 2.32276 4.62486 1.30371 6.61227L5.36957 9.70384C6.33885 6.86059 9.04943 4.75065 12.2429 4.75065Z" fill="#EA4335"/>
</svg>
