<svg width="334" height="156" viewBox="0 0 334 156" fill="none" xmlns="http://www.w3.org/2000/svg">
<rect opacity="0.4" x="15.6211" y="8.61914" width="301.677" height="146.529" rx="15.0839" fill="#8365E2"/>
<rect width="334" height="146.529" rx="15.0839" fill="#643FDB"/>
<rect x="28" y="27" width="50" height="83" rx="15.0839" fill="white" fill-opacity="0.14"/>
<path d="M42.8642 51V49.3278L47.0188 45.7939C47.8692 45.0814 48.4553 44.4953 48.7771 44.0356C49.1104 43.5644 49.277 43.0644 49.277 42.5358C49.277 41.9612 49.0931 41.5072 48.7254 41.1739C48.3576 40.8292 47.8922 40.6568 47.3291 40.6568C46.8004 40.6568 46.3235 40.8004 45.8982 41.0877C45.4845 41.3751 45.0306 41.8348 44.5364 42.4668L43.0366 41.2946C43.6572 40.4212 44.295 39.7833 44.9501 39.3811C45.6167 38.9674 46.4614 38.7605 47.4842 38.7605C48.6679 38.7605 49.6275 39.0938 50.3631 39.7604C51.0986 40.4269 51.4663 41.3061 51.4663 42.3979C51.4663 42.8691 51.4089 43.2943 51.294 43.6735C51.179 44.0413 50.9722 44.4206 50.6734 44.8113C50.3861 45.1906 50.07 45.5411 49.7252 45.8629C49.392 46.1732 48.9265 46.5754 48.3289 47.0696L45.8465 49.1382H51.587V51H42.8642ZM57.9185 51.2069C56.5049 51.2069 55.2177 50.7242 54.057 49.7588L55.212 48.1384C56.1084 48.8969 57.0278 49.2761 57.9702 49.2761C58.8436 49.2761 59.5389 48.9314 60.0561 48.2418C60.5732 47.5408 60.8491 46.6214 60.8835 45.4836C60.171 46.3341 59.2286 46.7593 58.0564 46.7593C56.7692 46.7593 55.7349 46.4088 54.9534 45.7077C54.1719 45.0067 53.7812 44.07 53.7812 42.8978C53.7812 41.7026 54.2007 40.7085 55.0396 39.9155C55.8786 39.1225 56.9588 38.726 58.2805 38.726C59.6596 38.726 60.7744 39.1513 61.6248 40.0017C62.6017 40.9786 63.0901 42.5243 63.0901 44.6389C63.0901 46.6041 62.6246 48.1901 61.6937 49.3968C60.7744 50.6035 59.5159 51.2069 57.9185 51.2069ZM56.5739 44.3803C57.0221 44.7826 57.6197 44.9837 58.3667 44.9837C59.1137 44.9837 59.7056 44.7711 60.1423 44.3459C60.5905 43.9206 60.8146 43.3977 60.8146 42.7771C60.8146 42.1336 60.5847 41.6049 60.125 41.1912C59.6653 40.766 59.0562 40.5533 58.2977 40.5533C57.5622 40.5533 56.9761 40.7717 56.5394 41.2084C56.1142 41.6336 55.9015 42.1738 55.9015 42.8289C55.9015 43.4609 56.1256 43.9781 56.5739 44.3803Z" fill="white"/>
<path d="M44.6133 71V62.8935H41.5749V61.9497H48.6859V62.8935H45.6476V71H44.6133ZM51.8991 71.1422C51.1061 71.1422 50.4812 70.9009 50.0244 70.4182C49.5675 69.9269 49.3391 69.2761 49.3391 68.4659V64.3157H50.3347V68.2203C50.3347 68.8495 50.4941 69.3451 50.813 69.7071C51.1406 70.0605 51.5974 70.2372 52.1835 70.2372C52.761 70.2372 53.2394 70.0433 53.6186 69.6554C53.9979 69.2675 54.1875 68.7633 54.1875 68.1427V64.3157H55.1701V71H54.1875V69.8364C53.6445 70.7069 52.8817 71.1422 51.8991 71.1422ZM58.1336 68.0651C58.2025 68.746 58.4568 69.2891 58.8964 69.6942C59.3446 70.0907 59.8747 70.2889 60.4867 70.2889C61.2883 70.2889 61.9907 69.9743 62.5941 69.3451L63.2147 69.901C62.4648 70.7371 61.5468 71.1551 60.4608 71.1551C59.5213 71.1551 58.7283 70.8319 58.0819 70.1855C57.444 69.5304 57.1251 68.69 57.1251 67.6643C57.1251 66.6903 57.4311 65.8672 58.0431 65.1949C58.6551 64.5139 59.4179 64.1735 60.3315 64.1735C61.2883 64.1735 62.0468 64.5096 62.607 65.1819C63.1673 65.8542 63.4474 66.6989 63.4474 67.716C63.4474 67.8453 63.4431 67.9617 63.4345 68.0651H58.1336ZM58.1336 67.2635H62.439C62.3786 66.6171 62.1631 66.0827 61.7925 65.6603C61.4305 65.2293 60.9349 65.0139 60.3057 65.0139C59.7368 65.0139 59.2498 65.225 58.8447 65.6474C58.4396 66.0697 58.2025 66.6084 58.1336 67.2635Z" fill="white"/>
<path d="M97.5244 38.0908C97.5244 38.8407 97.2658 39.4656 96.7486 39.9655C96.2401 40.4568 95.46 40.7025 94.4085 40.7025H92.676V44.4648H91.4994V35.4533H94.4085C95.4256 35.4533 96.197 35.699 96.7228 36.1903C97.2572 36.6816 97.5244 37.3151 97.5244 38.0908ZM94.4085 39.7328C95.0635 39.7328 95.5462 39.5906 95.8565 39.3062C96.1668 39.0217 96.322 38.6166 96.322 38.0908C96.322 36.9789 95.6841 36.423 94.4085 36.423H92.676V39.7328H94.4085ZM105.451 40.6508C105.451 40.8749 105.438 41.1119 105.412 41.3619H99.7495C99.7926 42.06 100.03 42.6074 100.461 43.0039C100.9 43.3917 101.43 43.5857 102.051 43.5857C102.559 43.5857 102.982 43.4693 103.318 43.2366C103.663 42.9952 103.904 42.6763 104.042 42.2798H105.309C105.119 42.9608 104.74 43.5167 104.171 43.9477C103.602 44.37 102.896 44.5812 102.051 44.5812C101.379 44.5812 100.775 44.4304 100.241 44.1287C99.715 43.827 99.3013 43.4004 98.9996 42.8487C98.6979 42.2885 98.5471 41.642 98.5471 40.9094C98.5471 40.1767 98.6936 39.5346 98.9867 38.9829C99.2797 38.4313 99.6891 38.0089 100.215 37.7159C100.749 37.4142 101.361 37.2634 102.051 37.2634C102.723 37.2634 103.318 37.4099 103.835 37.703C104.352 37.996 104.749 38.4011 105.025 38.9183C105.309 39.4268 105.451 40.0043 105.451 40.6508ZM104.236 40.4051C104.236 39.9569 104.137 39.5734 103.938 39.2544C103.74 38.9269 103.469 38.6813 103.124 38.5175C102.788 38.3451 102.413 38.2589 101.999 38.2589C101.404 38.2589 100.896 38.4485 100.474 38.8278C100.06 39.207 99.8227 39.7328 99.7624 40.4051H104.236ZM110.456 37.2504C111.318 37.2504 112.016 37.5133 112.551 38.0391C113.085 38.5563 113.352 39.3062 113.352 40.2888V44.4648H112.189V40.4568C112.189 39.7501 112.012 39.2113 111.659 38.8407C111.305 38.4615 110.823 38.2718 110.211 38.2718C109.59 38.2718 109.094 38.4658 108.724 38.8536C108.362 39.2415 108.181 39.8061 108.181 40.5473V44.4648H107.004V37.3797H108.181V38.3882C108.413 38.0262 108.728 37.7461 109.125 37.5478C109.53 37.3496 109.974 37.2504 110.456 37.2504ZM114.835 40.8964C114.835 40.1724 114.981 39.5389 115.274 38.9959C115.567 38.4442 115.968 38.0176 116.477 37.7159C116.994 37.4142 117.571 37.2634 118.209 37.2634C118.761 37.2634 119.274 37.3927 119.748 37.6512C120.222 37.9012 120.584 38.233 120.834 38.6468V34.8974H122.023V44.4648H120.834V43.1332C120.601 43.5555 120.256 43.9046 119.799 44.1804C119.343 44.4476 118.808 44.5812 118.196 44.5812C117.567 44.5812 116.994 44.4261 116.477 44.1158C115.968 43.8055 115.567 43.3702 115.274 42.8099C114.981 42.2497 114.835 41.6118 114.835 40.8964ZM120.834 40.9094C120.834 40.375 120.726 39.9095 120.51 39.513C120.295 39.1165 120.002 38.8149 119.631 38.608C119.269 38.3925 118.868 38.2848 118.429 38.2848C117.989 38.2848 117.589 38.3882 117.226 38.5951C116.864 38.8019 116.576 39.1036 116.36 39.5001C116.145 39.8966 116.037 40.362 116.037 40.8964C116.037 41.4394 116.145 41.9135 116.36 42.3186C116.576 42.7151 116.864 43.0211 117.226 43.2366C117.589 43.4435 117.989 43.5469 118.429 43.5469C118.868 43.5469 119.269 43.4435 119.631 43.2366C120.002 43.0211 120.295 42.7151 120.51 42.3186C120.726 41.9135 120.834 41.4438 120.834 40.9094ZM124.619 36.229C124.395 36.229 124.205 36.1515 124.05 35.9963C123.895 35.8412 123.817 35.6516 123.817 35.4274C123.817 35.2033 123.895 35.0137 124.05 34.8586C124.205 34.7034 124.395 34.6258 124.619 34.6258C124.835 34.6258 125.016 34.7034 125.162 34.8586C125.317 35.0137 125.395 35.2033 125.395 35.4274C125.395 35.6516 125.317 35.8412 125.162 35.9963C125.016 36.1515 124.835 36.229 124.619 36.229ZM125.188 37.3797V44.4648H124.011V37.3797H125.188ZM130.645 37.2504C131.507 37.2504 132.205 37.5133 132.74 38.0391C133.274 38.5563 133.541 39.3062 133.541 40.2888V44.4648H132.378V40.4568C132.378 39.7501 132.201 39.2113 131.848 38.8407C131.494 38.4615 131.012 38.2718 130.4 38.2718C129.779 38.2718 129.283 38.4658 128.913 38.8536C128.551 39.2415 128.37 39.8061 128.37 40.5473V44.4648H127.193V37.3797H128.37V38.3882C128.602 38.0262 128.917 37.7461 129.314 37.5478C129.719 37.3496 130.163 37.2504 130.645 37.2504ZM138.385 37.2634C138.997 37.2634 139.532 37.397 139.988 37.6642C140.454 37.9314 140.799 38.2675 141.023 38.6726V37.3797H142.212V44.62C142.212 45.2664 142.074 45.8396 141.798 46.3396C141.523 46.8481 141.126 47.2446 140.609 47.529C140.1 47.8135 139.506 47.9557 138.825 47.9557C137.894 47.9557 137.118 47.7359 136.498 47.2963C135.877 46.8567 135.511 46.2577 135.399 45.4992H136.562C136.691 45.9301 136.959 46.2749 137.364 46.5335C137.769 46.8007 138.256 46.9343 138.825 46.9343C139.471 46.9343 139.997 46.7317 140.402 46.3266C140.816 45.9215 141.023 45.3526 141.023 44.62V43.1332C140.79 43.5469 140.445 43.8917 139.988 44.1675C139.532 44.4433 138.997 44.5812 138.385 44.5812C137.756 44.5812 137.183 44.4261 136.666 44.1158C136.157 43.8055 135.756 43.3702 135.463 42.8099C135.17 42.2497 135.024 41.6118 135.024 40.8964C135.024 40.1724 135.17 39.5389 135.463 38.9959C135.756 38.4442 136.157 38.0176 136.666 37.7159C137.183 37.4142 137.756 37.2634 138.385 37.2634ZM141.023 40.9094C141.023 40.375 140.915 39.9095 140.699 39.513C140.484 39.1165 140.191 38.8149 139.82 38.608C139.458 38.3925 139.057 38.2848 138.618 38.2848C138.178 38.2848 137.777 38.3882 137.415 38.5951C137.053 38.8019 136.765 39.1036 136.549 39.5001C136.334 39.8966 136.226 40.362 136.226 40.8964C136.226 41.4394 136.334 41.9135 136.549 42.3186C136.765 42.7151 137.053 43.0211 137.415 43.2366C137.777 43.4435 138.178 43.5469 138.618 43.5469C139.057 43.5469 139.458 43.4435 139.82 43.2366C140.191 43.0211 140.484 42.7151 140.699 42.3186C140.915 41.9135 141.023 41.4438 141.023 40.9094ZM147.208 40.8964C147.208 40.1724 147.354 39.5389 147.647 38.9959C147.94 38.4442 148.341 38.0176 148.85 37.7159C149.367 37.4142 149.94 37.2634 150.569 37.2634C151.19 37.2634 151.729 37.397 152.185 37.6642C152.642 37.9314 152.983 38.2675 153.207 38.6726V37.3797H154.396V44.4648H153.207V43.1461C152.974 43.5598 152.625 43.9046 152.16 44.1804C151.703 44.4476 151.168 44.5812 150.556 44.5812C149.927 44.5812 149.358 44.4261 148.85 44.1158C148.341 43.8055 147.94 43.3702 147.647 42.8099C147.354 42.2497 147.208 41.6118 147.208 40.8964ZM153.207 40.9094C153.207 40.375 153.099 39.9095 152.884 39.513C152.668 39.1165 152.375 38.8149 152.004 38.608C151.642 38.3925 151.242 38.2848 150.802 38.2848C150.362 38.2848 149.962 38.3882 149.6 38.5951C149.238 38.8019 148.949 39.1036 148.733 39.5001C148.518 39.8966 148.41 40.362 148.41 40.8964C148.41 41.4394 148.518 41.9135 148.733 42.3186C148.949 42.7151 149.238 43.0211 149.6 43.2366C149.962 43.4435 150.362 43.5469 150.802 43.5469C151.242 43.5469 151.642 43.4435 152.004 43.2366C152.375 43.0211 152.668 42.7151 152.884 42.3186C153.099 41.9135 153.207 41.4438 153.207 40.9094ZM157.561 38.6856C157.794 38.2805 158.139 37.9443 158.595 37.6771C159.061 37.4013 159.6 37.2634 160.211 37.2634C160.841 37.2634 161.41 37.4142 161.918 37.7159C162.435 38.0176 162.84 38.4442 163.133 38.9959C163.427 39.5389 163.573 40.1724 163.573 40.8964C163.573 41.6118 163.427 42.2497 163.133 42.8099C162.84 43.3702 162.435 43.8055 161.918 44.1158C161.41 44.4261 160.841 44.5812 160.211 44.5812C159.608 44.5812 159.074 44.4476 158.608 44.1804C158.151 43.9046 157.802 43.5641 157.561 43.159V47.8264H156.384V37.3797H157.561V38.6856ZM162.371 40.8964C162.371 40.362 162.263 39.8966 162.047 39.5001C161.832 39.1036 161.539 38.8019 161.168 38.5951C160.806 38.3882 160.405 38.2848 159.966 38.2848C159.535 38.2848 159.134 38.3925 158.763 38.608C158.401 38.8149 158.108 39.1208 157.884 39.526C157.669 39.9224 157.561 40.3836 157.561 40.9094C157.561 41.4438 157.669 41.9135 157.884 42.3186C158.108 42.7151 158.401 43.0211 158.763 43.2366C159.134 43.4435 159.535 43.5469 159.966 43.5469C160.405 43.5469 160.806 43.4435 161.168 43.2366C161.539 43.0211 161.832 42.7151 162.047 42.3186C162.263 41.9135 162.371 41.4394 162.371 40.8964ZM166.298 38.6856C166.531 38.2805 166.876 37.9443 167.333 37.6771C167.798 37.4013 168.337 37.2634 168.949 37.2634C169.578 37.2634 170.147 37.4142 170.655 37.7159C171.172 38.0176 171.578 38.4442 171.871 38.9959C172.164 39.5389 172.31 40.1724 172.31 40.8964C172.31 41.6118 172.164 42.2497 171.871 42.8099C171.578 43.3702 171.172 43.8055 170.655 44.1158C170.147 44.4261 169.578 44.5812 168.949 44.5812C168.345 44.5812 167.811 44.4476 167.345 44.1804C166.889 43.9046 166.54 43.5641 166.298 43.159V47.8264H165.122V37.3797H166.298V38.6856ZM171.108 40.8964C171.108 40.362 171 39.8966 170.785 39.5001C170.569 39.1036 170.276 38.8019 169.905 38.5951C169.543 38.3882 169.143 38.2848 168.703 38.2848C168.272 38.2848 167.871 38.3925 167.501 38.608C167.139 38.8149 166.846 39.1208 166.621 39.526C166.406 39.9224 166.298 40.3836 166.298 40.9094C166.298 41.4438 166.406 41.9135 166.621 42.3186C166.846 42.7151 167.139 43.0211 167.501 43.2366C167.871 43.4435 168.272 43.5469 168.703 43.5469C169.143 43.5469 169.543 43.4435 169.905 43.2366C170.276 43.0211 170.569 42.7151 170.785 42.3186C171 41.9135 171.108 41.4394 171.108 40.8964ZM176.949 44.5812C176.285 44.5812 175.682 44.4304 175.139 44.1287C174.604 43.827 174.182 43.4004 173.872 42.8487C173.57 42.2885 173.419 41.642 173.419 40.9094C173.419 40.1853 173.574 39.5475 173.885 38.9959C174.204 38.4356 174.635 38.0089 175.178 37.7159C175.721 37.4142 176.328 37.2634 177.001 37.2634C177.673 37.2634 178.281 37.4142 178.824 37.7159C179.367 38.0089 179.793 38.4313 180.104 38.9829C180.423 39.5346 180.582 40.1767 180.582 40.9094C180.582 41.642 180.418 42.2885 180.091 42.8487C179.772 43.4004 179.336 43.827 178.785 44.1287C178.233 44.4304 177.621 44.5812 176.949 44.5812ZM176.949 43.5469C177.371 43.5469 177.768 43.4478 178.138 43.2495C178.509 43.0513 178.806 42.7539 179.031 42.3574C179.263 41.9609 179.38 41.4782 179.38 40.9094C179.38 40.3405 179.268 39.8578 179.043 39.4613C178.819 39.0648 178.526 38.7718 178.164 38.5821C177.802 38.3839 177.41 38.2848 176.988 38.2848C176.557 38.2848 176.16 38.3839 175.798 38.5821C175.445 38.7718 175.16 39.0648 174.945 39.4613C174.729 39.8578 174.622 40.3405 174.622 40.9094C174.622 41.4869 174.725 41.9739 174.932 42.3703C175.147 42.7668 175.432 43.0642 175.785 43.2624C176.139 43.4521 176.527 43.5469 176.949 43.5469ZM182.737 36.229C182.512 36.229 182.323 36.1515 182.168 35.9963C182.013 35.8412 181.935 35.6516 181.935 35.4274C181.935 35.2033 182.013 35.0137 182.168 34.8586C182.323 34.7034 182.512 34.6258 182.737 34.6258C182.952 34.6258 183.133 34.7034 183.28 34.8586C183.435 35.0137 183.512 35.2033 183.512 35.4274C183.512 35.6516 183.435 35.8412 183.28 35.9963C183.133 36.1515 182.952 36.229 182.737 36.229ZM183.305 37.3797V44.4648H182.129V37.3797H183.305ZM188.763 37.2504C189.625 37.2504 190.323 37.5133 190.857 38.0391C191.392 38.5563 191.659 39.3062 191.659 40.2888V44.4648H190.495V40.4568C190.495 39.7501 190.319 39.2113 189.965 38.8407C189.612 38.4615 189.129 38.2718 188.517 38.2718C187.896 38.2718 187.401 38.4658 187.03 38.8536C186.668 39.2415 186.487 39.8061 186.487 40.5473V44.4648H185.311V37.3797H186.487V38.3882C186.72 38.0262 187.035 37.7461 187.431 37.5478C187.836 37.3496 188.28 37.2504 188.763 37.2504ZM195.016 38.3494V42.5255C195.016 42.8703 195.089 43.1159 195.236 43.2624C195.382 43.4004 195.636 43.4693 195.998 43.4693H196.865V44.4648H195.805C195.149 44.4648 194.658 44.314 194.331 44.0123C194.003 43.7107 193.839 43.215 193.839 42.5255V38.3494H192.921V37.3797H193.839V35.5955H195.016V37.3797H196.865V38.3494H195.016ZM206.81 37.2504C207.362 37.2504 207.853 37.3668 208.284 37.5995C208.715 37.8236 209.056 38.1641 209.306 38.6209C209.556 39.0777 209.681 39.6337 209.681 40.2888V44.4648H208.517V40.4568C208.517 39.7501 208.34 39.2113 207.987 38.8407C207.642 38.4615 207.172 38.2718 206.578 38.2718C205.966 38.2718 205.479 38.4701 205.117 38.8666C204.755 39.2544 204.574 39.819 204.574 40.5603V44.4648H203.41V40.4568C203.41 39.7501 203.233 39.2113 202.88 38.8407C202.535 38.4615 202.065 38.2718 201.471 38.2718C200.859 38.2718 200.372 38.4701 200.01 38.8666C199.648 39.2544 199.467 39.819 199.467 40.5603V44.4648H198.29V37.3797H199.467V38.4011C199.699 38.0305 200.01 37.7461 200.398 37.5478C200.794 37.3496 201.229 37.2504 201.703 37.2504C202.298 37.2504 202.824 37.384 203.281 37.6512C203.738 37.9184 204.078 38.3106 204.302 38.8278C204.5 38.3279 204.828 37.94 205.285 37.6642C205.742 37.3884 206.25 37.2504 206.81 37.2504ZM218.075 40.6508C218.075 40.8749 218.062 41.1119 218.036 41.3619H212.373C212.417 42.06 212.654 42.6074 213.085 43.0039C213.524 43.3917 214.054 43.5857 214.675 43.5857C215.183 43.5857 215.606 43.4693 215.942 43.2366C216.287 42.9952 216.528 42.6763 216.666 42.2798H217.933C217.743 42.9608 217.364 43.5167 216.795 43.9477C216.226 44.37 215.52 44.5812 214.675 44.5812C214.003 44.5812 213.399 44.4304 212.865 44.1287C212.339 43.827 211.925 43.4004 211.624 42.8487C211.322 42.2885 211.171 41.642 211.171 40.9094C211.171 40.1767 211.318 39.5346 211.611 38.9829C211.904 38.4313 212.313 38.0089 212.839 37.7159C213.373 37.4142 213.985 37.2634 214.675 37.2634C215.347 37.2634 215.942 37.4099 216.459 37.703C216.976 37.996 217.373 38.4011 217.649 38.9183C217.933 39.4268 218.075 40.0043 218.075 40.6508ZM216.86 40.4051C216.86 39.9569 216.761 39.5734 216.562 39.2544C216.364 38.9269 216.093 38.6813 215.748 38.5175C215.412 38.3451 215.037 38.2589 214.623 38.2589C214.028 38.2589 213.52 38.4485 213.098 38.8278C212.684 39.207 212.447 39.7328 212.386 40.4051H216.86ZM223.08 37.2504C223.942 37.2504 224.64 37.5133 225.175 38.0391C225.709 38.5563 225.976 39.3062 225.976 40.2888V44.4648H224.813V40.4568C224.813 39.7501 224.636 39.2113 224.283 38.8407C223.929 38.4615 223.447 38.2718 222.835 38.2718C222.214 38.2718 221.718 38.4658 221.348 38.8536C220.986 39.2415 220.805 39.8061 220.805 40.5473V44.4648H219.628V37.3797H220.805V38.3882C221.037 38.0262 221.352 37.7461 221.749 37.5478C222.154 37.3496 222.598 37.2504 223.08 37.2504ZM229.333 38.3494V42.5255C229.333 42.8703 229.407 43.1159 229.553 43.2624C229.7 43.4004 229.954 43.4693 230.316 43.4693H231.182V44.4648H230.122C229.467 44.4648 228.976 44.314 228.648 44.0123C228.321 43.7107 228.157 43.215 228.157 42.5255V38.3494H227.239V37.3797H228.157V35.5955H229.333V37.3797H231.182V38.3494H229.333Z" fill="white"/>
<path d="M98.4423 82.8596V91.8711H97.2658V87.7855H92.676V91.8711H91.4994V82.8596H92.676V86.8158H97.2658V82.8596H98.4423ZM101.059 83.6353C100.835 83.6353 100.645 83.5577 100.49 83.4026C100.335 83.2474 100.257 83.0578 100.257 82.8337C100.257 82.6096 100.335 82.42 100.49 82.2648C100.645 82.1097 100.835 82.0321 101.059 82.0321C101.274 82.0321 101.455 82.1097 101.602 82.2648C101.757 82.42 101.835 82.6096 101.835 82.8337C101.835 83.0578 101.757 83.2474 101.602 83.4026C101.455 83.5577 101.274 83.6353 101.059 83.6353ZM101.628 84.786V91.8711H100.451V84.786H101.628ZM106.555 84.6696C107.167 84.6696 107.701 84.8032 108.158 85.0704C108.624 85.3376 108.968 85.6738 109.193 86.0789V84.786H110.382V92.0262C110.382 92.6727 110.244 93.2459 109.968 93.7458C109.692 94.2543 109.296 94.6508 108.779 94.9353C108.27 95.2197 107.676 95.3619 106.995 95.3619C106.064 95.3619 105.288 95.1421 104.667 94.7026C104.047 94.263 103.68 93.6639 103.568 92.9054H104.732C104.861 93.3364 105.128 93.6812 105.534 93.9397C105.939 94.2069 106.426 94.3405 106.995 94.3405C107.641 94.3405 108.167 94.138 108.572 93.7329C108.986 93.3278 109.193 92.7589 109.193 92.0262V90.5394C108.96 90.9531 108.615 91.2979 108.158 91.5737C107.701 91.8495 107.167 91.9875 106.555 91.9875C105.926 91.9875 105.353 91.8323 104.835 91.522C104.327 91.2117 103.926 90.7764 103.633 90.2162C103.34 89.6559 103.193 89.0181 103.193 88.3027C103.193 87.5787 103.34 86.9451 103.633 86.4021C103.926 85.8505 104.327 85.4238 104.835 85.1221C105.353 84.8205 105.926 84.6696 106.555 84.6696ZM109.193 88.3156C109.193 87.7812 109.085 87.3158 108.869 86.9193C108.654 86.5228 108.361 86.2211 107.99 86.0142C107.628 85.7988 107.227 85.691 106.788 85.691C106.348 85.691 105.947 85.7944 105.585 86.0013C105.223 86.2082 104.935 86.5099 104.719 86.9063C104.504 87.3028 104.396 87.7683 104.396 88.3027C104.396 88.8457 104.504 89.3198 104.719 89.7249C104.935 90.1214 105.223 90.4274 105.585 90.6428C105.947 90.8497 106.348 90.9531 106.788 90.9531C107.227 90.9531 107.628 90.8497 107.99 90.6428C108.361 90.4274 108.654 90.1214 108.869 89.7249C109.085 89.3198 109.193 88.85 109.193 88.3156ZM115.887 84.6567C116.421 84.6567 116.904 84.7731 117.335 85.0058C117.766 85.2299 118.102 85.5703 118.343 86.0272C118.593 86.484 118.718 87.0399 118.718 87.695V91.8711H117.555V87.8631C117.555 87.1563 117.378 86.6176 117.025 86.247C116.671 85.8677 116.189 85.6781 115.577 85.6781C114.956 85.6781 114.46 85.872 114.09 86.2599C113.728 86.6478 113.547 87.2123 113.547 87.9536V91.8711H112.37V82.3036H113.547V85.7944C113.779 85.4324 114.098 85.1523 114.504 84.9541C114.917 84.7558 115.378 84.6567 115.887 84.6567ZM128.599 87.2296C128.927 87.2813 129.224 87.4149 129.492 87.6304C129.767 87.8459 129.983 88.1131 130.138 88.432C130.302 88.7509 130.384 89.0914 130.384 89.4534C130.384 89.9102 130.267 90.3239 130.035 90.6946C129.802 91.0566 129.461 91.3453 129.013 91.5608C128.574 91.7677 128.052 91.8711 127.449 91.8711H124.087V82.8596H127.319C127.931 82.8596 128.453 82.963 128.884 83.1699C129.315 83.3681 129.638 83.6396 129.854 83.9844C130.069 84.3292 130.177 84.717 130.177 85.148C130.177 85.6824 130.03 86.1263 129.737 86.4797C129.453 86.8245 129.073 87.0744 128.599 87.2296ZM125.264 86.7512H127.242C127.793 86.7512 128.22 86.6219 128.522 86.3633C128.824 86.1047 128.974 85.747 128.974 85.2902C128.974 84.8334 128.824 84.4757 128.522 84.2171C128.22 83.9585 127.785 83.8292 127.216 83.8292H125.264V86.7512ZM127.345 90.9014C127.931 90.9014 128.388 90.7635 128.716 90.4877C129.043 90.2119 129.207 89.8283 129.207 89.337C129.207 88.8371 129.035 88.4449 128.69 88.1605C128.345 87.8674 127.884 87.7209 127.306 87.7209H125.264V90.9014H127.345ZM133.193 82.3036V91.8711H132.016V82.3036H133.193ZM138.288 91.9875C137.624 91.9875 137.021 91.8366 136.478 91.5349C135.944 91.2333 135.521 90.8066 135.211 90.255C134.909 89.6947 134.758 89.0483 134.758 88.3156C134.758 87.5916 134.914 86.9538 135.224 86.4021C135.543 85.8419 135.974 85.4152 136.517 85.1221C137.06 84.8205 137.668 84.6696 138.34 84.6696C139.012 84.6696 139.62 84.8205 140.163 85.1221C140.706 85.4152 141.132 85.8375 141.443 86.3892C141.762 86.9408 141.921 87.583 141.921 88.3156C141.921 89.0483 141.757 89.6947 141.43 90.255C141.111 90.8066 140.676 91.2333 140.124 91.5349C139.572 91.8366 138.96 91.9875 138.288 91.9875ZM138.288 90.9531C138.71 90.9531 139.107 90.854 139.478 90.6558C139.848 90.4575 140.146 90.1602 140.37 89.7637C140.602 89.3672 140.719 88.8845 140.719 88.3156C140.719 87.7467 140.607 87.264 140.383 86.8676C140.158 86.4711 139.865 86.178 139.503 85.9884C139.141 85.7901 138.749 85.691 138.327 85.691C137.896 85.691 137.499 85.7901 137.137 85.9884C136.784 86.178 136.5 86.4711 136.284 86.8676C136.069 87.264 135.961 87.7467 135.961 88.3156C135.961 88.8931 136.064 89.3801 136.271 89.7766C136.487 90.1731 136.771 90.4704 137.124 90.6687C137.478 90.8583 137.866 90.9531 138.288 90.9531ZM146.558 91.9875C145.894 91.9875 145.291 91.8366 144.748 91.5349C144.214 91.2333 143.791 90.8066 143.481 90.255C143.179 89.6947 143.029 89.0483 143.029 88.3156C143.029 87.5916 143.184 86.9538 143.494 86.4021C143.813 85.8419 144.244 85.4152 144.787 85.1221C145.33 84.8205 145.938 84.6696 146.61 84.6696C147.282 84.6696 147.89 84.8205 148.433 85.1221C148.976 85.4152 149.403 85.8375 149.713 86.3892C150.032 86.9408 150.191 87.583 150.191 88.3156C150.191 89.0483 150.027 89.6947 149.7 90.255C149.381 90.8066 148.946 91.2333 148.394 91.5349C147.842 91.8366 147.23 91.9875 146.558 91.9875ZM146.558 90.9531C146.98 90.9531 147.377 90.854 147.748 90.6558C148.118 90.4575 148.416 90.1602 148.64 89.7637C148.872 89.3672 148.989 88.8845 148.989 88.3156C148.989 87.7467 148.877 87.264 148.653 86.8676C148.429 86.4711 148.135 86.178 147.773 85.9884C147.411 85.7901 147.019 85.691 146.597 85.691C146.166 85.691 145.769 85.7901 145.407 85.9884C145.054 86.178 144.77 86.4711 144.554 86.8676C144.339 87.264 144.231 87.7467 144.231 88.3156C144.231 88.8931 144.334 89.3801 144.541 89.7766C144.757 90.1731 145.041 90.4704 145.395 90.6687C145.748 90.8583 146.136 90.9531 146.558 90.9531ZM151.299 88.3027C151.299 87.5787 151.445 86.9451 151.738 86.4021C152.031 85.8505 152.432 85.4238 152.941 85.1221C153.458 84.8205 154.035 84.6696 154.673 84.6696C155.225 84.6696 155.738 84.7989 156.212 85.0575C156.686 85.3075 157.048 85.6393 157.298 86.053V82.3036H158.487V91.8711H157.298V90.5394C157.065 90.9618 156.72 91.3108 156.263 91.5867C155.806 91.8539 155.272 91.9875 154.66 91.9875C154.031 91.9875 153.458 91.8323 152.941 91.522C152.432 91.2117 152.031 90.7764 151.738 90.2162C151.445 89.6559 151.299 89.0181 151.299 88.3027ZM157.298 88.3156C157.298 87.7812 157.19 87.3158 156.974 86.9193C156.759 86.5228 156.466 86.2211 156.095 86.0142C155.733 85.7988 155.332 85.691 154.893 85.691C154.453 85.691 154.052 85.7944 153.69 86.0013C153.328 86.2082 153.04 86.5099 152.824 86.9063C152.609 87.3028 152.501 87.7683 152.501 88.3027C152.501 88.8457 152.609 89.3198 152.824 89.7249C153.04 90.1214 153.328 90.4274 153.69 90.6428C154.052 90.8497 154.453 90.9531 154.893 90.9531C155.332 90.9531 155.733 90.8497 156.095 90.6428C156.466 90.4274 156.759 90.1214 156.974 89.7249C157.19 89.3198 157.298 88.85 157.298 88.3156ZM169.947 85.4971C169.947 86.247 169.689 86.8719 169.171 87.3718C168.663 87.8631 167.883 88.1087 166.831 88.1087H165.099V91.8711H163.922V82.8596H166.831C167.848 82.8596 168.62 83.1052 169.146 83.5965C169.68 84.0878 169.947 84.7213 169.947 85.4971ZM166.831 87.1391C167.486 87.1391 167.969 86.9968 168.279 86.7124C168.59 86.428 168.745 86.0229 168.745 85.4971C168.745 84.3852 168.107 83.8292 166.831 83.8292H165.099V87.1391H166.831ZM172.586 85.9367C172.793 85.5316 173.086 85.217 173.465 84.9928C173.853 84.7687 174.323 84.6567 174.874 84.6567V85.872H174.564C173.245 85.872 172.586 86.5874 172.586 88.0182V91.8711H171.409V84.786H172.586V85.9367ZM182.697 88.057C182.697 88.2811 182.684 88.5182 182.658 88.7681H176.995C177.038 89.4663 177.276 90.0136 177.706 90.4101C178.146 90.798 178.676 90.9919 179.297 90.9919C179.805 90.9919 180.228 90.8756 180.564 90.6428C180.909 90.4015 181.15 90.0826 181.288 89.6861H182.555C182.365 90.367 181.986 90.923 181.417 91.3539C180.848 91.7763 180.141 91.9875 179.297 91.9875C178.624 91.9875 178.021 91.8366 177.487 91.5349C176.961 91.2333 176.547 90.8066 176.246 90.255C175.944 89.6947 175.793 89.0483 175.793 88.3156C175.793 87.583 175.94 86.9408 176.233 86.3892C176.526 85.8375 176.935 85.4152 177.461 85.1221C177.995 84.8205 178.607 84.6696 179.297 84.6696C179.969 84.6696 180.564 84.8162 181.081 85.1092C181.598 85.4023 181.995 85.8074 182.27 86.3245C182.555 86.8331 182.697 87.4106 182.697 88.057ZM181.482 87.8114C181.482 87.3632 181.383 86.9796 181.184 86.6607C180.986 86.3332 180.715 86.0875 180.37 85.9237C180.034 85.7514 179.659 85.6652 179.245 85.6652C178.65 85.6652 178.142 85.8548 177.719 86.234C177.306 86.6133 177.069 87.1391 177.008 87.8114H181.482ZM186.758 91.9875C186.215 91.9875 185.728 91.897 185.297 91.7159C184.866 91.5263 184.526 91.2677 184.276 90.9402C184.026 90.604 183.888 90.2205 183.862 89.7895H185.078C185.112 90.1429 185.276 90.4317 185.569 90.6558C185.871 90.8799 186.263 90.9919 186.745 90.9919C187.194 90.9919 187.547 90.8928 187.806 90.6946C188.064 90.4963 188.193 90.2463 188.193 89.9447C188.193 89.6344 188.056 89.406 187.78 89.2594C187.504 89.1043 187.077 88.9534 186.5 88.8069C185.974 88.669 185.543 88.5311 185.207 88.3932C184.879 88.2467 184.595 88.0355 184.354 87.7597C184.121 87.4752 184.004 87.1046 184.004 86.6478C184.004 86.2858 184.112 85.9539 184.328 85.6522C184.543 85.3506 184.849 85.1135 185.246 84.9411C185.642 84.7601 186.095 84.6696 186.603 84.6696C187.388 84.6696 188.021 84.8679 188.504 85.2644C188.986 85.6608 189.245 86.2039 189.279 86.8934H188.103C188.077 86.5228 187.926 86.2254 187.65 86.0013C187.383 85.7772 187.021 85.6652 186.564 85.6652C186.142 85.6652 185.806 85.7557 185.556 85.9367C185.306 86.1177 185.181 86.3547 185.181 86.6478C185.181 86.8805 185.254 87.0744 185.401 87.2296C185.556 87.3761 185.746 87.4968 185.97 87.5916C186.202 87.6778 186.521 87.7769 186.926 87.889C187.435 88.0269 187.849 88.1648 188.168 88.3027C188.487 88.432 188.758 88.6302 188.982 88.8974C189.215 89.1646 189.336 89.5137 189.344 89.9447C189.344 90.3325 189.236 90.6816 189.021 90.9919C188.805 91.3022 188.499 91.5479 188.103 91.7289C187.715 91.9013 187.267 91.9875 186.758 91.9875ZM193.513 91.9875C192.97 91.9875 192.483 91.897 192.052 91.7159C191.621 91.5263 191.281 91.2677 191.031 90.9402C190.781 90.604 190.643 90.2205 190.617 89.7895H191.832C191.867 90.1429 192.031 90.4317 192.324 90.6558C192.625 90.8799 193.018 90.9919 193.5 90.9919C193.949 90.9919 194.302 90.8928 194.56 90.6946C194.819 90.4963 194.948 90.2463 194.948 89.9447C194.948 89.6344 194.81 89.406 194.535 89.2594C194.259 89.1043 193.832 88.9534 193.255 88.8069C192.729 88.669 192.298 88.5311 191.962 88.3932C191.634 88.2467 191.35 88.0355 191.108 87.7597C190.876 87.4752 190.759 87.1046 190.759 86.6478C190.759 86.2858 190.867 85.9539 191.083 85.6522C191.298 85.3506 191.604 85.1135 192.001 84.9411C192.397 84.7601 192.85 84.6696 193.358 84.6696C194.142 84.6696 194.776 84.8679 195.259 85.2644C195.741 85.6608 196 86.2039 196.034 86.8934H194.858C194.832 86.5228 194.681 86.2254 194.405 86.0013C194.138 85.7772 193.776 85.6652 193.319 85.6652C192.897 85.6652 192.561 85.7557 192.311 85.9367C192.061 86.1177 191.936 86.3547 191.936 86.6478C191.936 86.8805 192.009 87.0744 192.156 87.2296C192.311 87.3761 192.5 87.4968 192.725 87.5916C192.957 87.6778 193.276 87.7769 193.681 87.889C194.19 88.0269 194.604 88.1648 194.923 88.3027C195.241 88.432 195.513 88.6302 195.737 88.8974C195.97 89.1646 196.09 89.5137 196.099 89.9447C196.099 90.3325 195.991 90.6816 195.776 90.9919C195.56 91.3022 195.254 91.5479 194.858 91.7289C194.47 91.9013 194.022 91.9875 193.513 91.9875ZM204.043 84.786V91.8711H202.867V90.8238C202.643 91.1859 202.328 91.4703 201.923 91.6772C201.527 91.8754 201.087 91.9745 200.604 91.9745C200.053 91.9745 199.557 91.8625 199.117 91.6384C198.678 91.4056 198.329 91.0609 198.07 90.604C197.82 90.1472 197.695 89.5913 197.695 88.9362V84.786H198.859V88.7811C198.859 89.4792 199.036 90.0179 199.389 90.3972C199.742 90.7678 200.225 90.9531 200.837 90.9531C201.466 90.9531 201.962 90.7592 202.324 90.3713C202.686 89.9835 202.867 89.4189 202.867 88.6776V84.786H204.043ZM207.207 85.9367C207.413 85.5316 207.706 85.217 208.086 84.9928C208.474 84.7687 208.943 84.6567 209.495 84.6567V85.872H209.185C207.866 85.872 207.207 86.5874 207.207 88.0182V91.8711H206.03V84.786H207.207V85.9367ZM217.318 88.057C217.318 88.2811 217.305 88.5182 217.279 88.7681H211.616C211.659 89.4663 211.896 90.0136 212.327 90.4101C212.767 90.798 213.297 90.9919 213.917 90.9919C214.426 90.9919 214.848 90.8756 215.184 90.6428C215.529 90.4015 215.77 90.0826 215.908 89.6861H217.175C216.986 90.367 216.607 90.923 216.038 91.3539C215.469 91.7763 214.762 91.9875 213.917 91.9875C213.245 91.9875 212.642 91.8366 212.107 91.5349C211.581 91.2333 211.168 90.8066 210.866 90.255C210.564 89.6947 210.414 89.0483 210.414 88.3156C210.414 87.583 210.56 86.9408 210.853 86.3892C211.146 85.8375 211.556 85.4152 212.081 85.1221C212.616 84.8205 213.228 84.6696 213.917 84.6696C214.59 84.6696 215.184 84.8162 215.701 85.1092C216.219 85.4023 216.615 85.8074 216.891 86.3245C217.175 86.8331 217.318 87.4106 217.318 88.057ZM216.102 87.8114C216.102 87.3632 216.003 86.9796 215.805 86.6607C215.607 86.3332 215.335 86.0875 214.99 85.9237C214.654 85.7514 214.279 85.6652 213.866 85.6652C213.271 85.6652 212.762 85.8548 212.34 86.234C211.926 86.6133 211.689 87.1391 211.629 87.8114H216.102Z" fill="white" fill-opacity="0.65"/>
<path d="M99.8818 57.9811V59.929H96.6754V70.0137H94.2619V59.929H91.0555V57.9811H99.8818ZM101.194 65.2041C101.194 64.2387 101.384 63.3825 101.763 62.6355C102.154 61.8885 102.677 61.3139 103.332 60.9116C103.999 60.5094 104.74 60.3083 105.556 60.3083C106.268 60.3083 106.889 60.4519 107.418 60.7392C107.958 61.0266 108.389 61.3886 108.711 61.8253V60.4634H111.141V70.0137H108.711V68.6173C108.4 69.0655 107.969 69.439 107.418 69.7379C106.877 70.0252 106.251 70.1688 105.539 70.1688C104.734 70.1688 103.999 69.962 103.332 69.5482C102.677 69.1345 102.154 68.5541 101.763 67.8071C101.384 67.0486 101.194 66.1809 101.194 65.2041ZM108.711 65.2385C108.711 64.6524 108.596 64.1525 108.366 63.7388C108.136 63.3136 107.826 62.9918 107.435 62.7734C107.044 62.5436 106.625 62.4286 106.176 62.4286C105.728 62.4286 105.315 62.5378 104.935 62.7562C104.556 62.9745 104.246 63.2963 104.004 63.7215C103.775 64.1353 103.66 64.6294 103.66 65.2041C103.66 65.7787 103.775 66.2844 104.004 66.7211C104.246 67.1463 104.556 67.4738 104.935 67.7037C105.326 67.9335 105.74 68.0485 106.176 68.0485C106.625 68.0485 107.044 67.9393 107.435 67.7209C107.826 67.4911 108.136 67.1693 108.366 66.7556C108.596 66.3303 108.711 65.8247 108.711 65.2385ZM118.963 60.3255C120.101 60.3255 121.02 60.6875 121.721 61.4116C122.422 62.1241 122.773 63.1239 122.773 64.4111V70.0137H120.359V64.7386C120.359 63.9801 120.17 63.3998 119.79 62.9975C119.411 62.5838 118.894 62.3769 118.239 62.3769C117.572 62.3769 117.044 62.5838 116.653 62.9975C116.274 63.3998 116.084 63.9801 116.084 64.7386V70.0137H113.671V60.4634H116.084V61.6529C116.406 61.2392 116.814 60.9174 117.308 60.6875C117.814 60.4462 118.365 60.3255 118.963 60.3255ZM129.222 67.7899L131.636 60.4634H134.204L130.67 70.0137H127.74L124.223 60.4634H126.809L129.222 67.7899ZM136.956 59.3257C136.531 59.3257 136.175 59.1935 135.887 58.9292C135.612 58.6534 135.474 58.3143 135.474 57.9121C135.474 57.5099 135.612 57.1766 135.887 56.9123C136.175 56.6364 136.531 56.4985 136.956 56.4985C137.381 56.4985 137.732 56.6364 138.008 56.9123C138.295 57.1766 138.439 57.5099 138.439 57.9121C138.439 58.3143 138.295 58.6534 138.008 58.9292C137.732 59.1935 137.381 59.3257 136.956 59.3257ZM138.146 60.4634V70.0137H135.732V60.4634H138.146ZM143.116 61.946C143.426 61.4403 143.828 61.0438 144.323 60.7565C144.828 60.4692 145.403 60.3255 146.046 60.3255V62.8596H145.409C144.65 62.8596 144.076 63.0377 143.685 63.394C143.306 63.7503 143.116 64.3709 143.116 65.2558V70.0137H140.702V60.4634H143.116V61.946ZM159.503 67.7209H154.71L153.917 70.0137H151.383L155.71 57.9638H158.52L162.847 70.0137H160.296L159.503 67.7209ZM158.848 65.7902L157.106 60.7565L155.365 65.7902H158.848ZM170.015 60.3255C170.739 60.3255 171.383 60.4864 171.946 60.8082C172.509 61.1185 172.946 61.5839 173.256 62.2045C173.578 62.8136 173.739 63.5492 173.739 64.4111V70.0137H171.325V64.7386C171.325 63.9801 171.136 63.3998 170.756 62.9975C170.377 62.5838 169.86 62.3769 169.205 62.3769C168.538 62.3769 168.01 62.5838 167.619 62.9975C167.24 63.3998 167.05 63.9801 167.05 64.7386V70.0137H164.637V57.257H167.05V61.6529C167.36 61.2392 167.774 60.9174 168.291 60.6875C168.808 60.4462 169.383 60.3255 170.015 60.3255ZM188.066 60.3255C189.239 60.3255 190.181 60.6875 190.894 61.4116C191.618 62.1241 191.98 63.1239 191.98 64.4111V70.0137H189.566V64.7386C189.566 63.9916 189.377 63.4227 188.997 63.032C188.618 62.6298 188.101 62.4286 187.446 62.4286C186.791 62.4286 186.268 62.6298 185.877 63.032C185.498 63.4227 185.308 63.9916 185.308 64.7386V70.0137H182.895V64.7386C182.895 63.9916 182.705 63.4227 182.326 63.032C181.947 62.6298 181.429 62.4286 180.774 62.4286C180.108 62.4286 179.579 62.6298 179.188 63.032C178.809 63.4227 178.62 63.9916 178.62 64.7386V70.0137H176.206V60.4634H178.62V61.6184C178.93 61.2162 179.326 60.9001 179.809 60.6703C180.303 60.4404 180.843 60.3255 181.429 60.3255C182.176 60.3255 182.843 60.4864 183.429 60.8082C184.015 61.1185 184.469 61.5667 184.791 62.1528C185.101 61.6012 185.55 61.1587 186.136 60.8254C186.733 60.4922 187.377 60.3255 188.066 60.3255ZM203.32 65.0317C203.32 65.3765 203.297 65.6868 203.251 65.9626H196.269C196.327 66.6521 196.568 67.1923 196.993 67.583C197.419 67.9738 197.942 68.1691 198.562 68.1691C199.459 68.1691 200.096 67.7841 200.476 67.0141H203.079C202.803 67.9335 202.274 68.692 201.493 69.2896C200.711 69.8758 199.752 70.1688 198.614 70.1688C197.695 70.1688 196.867 69.9677 196.132 69.5655C195.408 69.1517 194.839 68.5714 194.425 67.8244C194.023 67.0773 193.822 66.2154 193.822 65.2385C193.822 64.2502 194.023 63.3825 194.425 62.6355C194.827 61.8885 195.39 61.3139 196.114 60.9116C196.838 60.5094 197.672 60.3083 198.614 60.3083C199.522 60.3083 200.332 60.5036 201.045 60.8944C201.769 61.2851 202.326 61.8425 202.717 62.5665C203.119 63.2791 203.32 64.1008 203.32 65.0317ZM200.82 64.3421C200.809 63.7215 200.585 63.2274 200.148 62.8596C199.711 62.4804 199.177 62.2907 198.545 62.2907C197.947 62.2907 197.442 62.4746 197.028 62.8424C196.626 63.1986 196.379 63.6986 196.287 64.3421H200.82ZM204.633 65.2041C204.633 64.2387 204.823 63.3825 205.202 62.6355C205.593 61.8885 206.122 61.3139 206.788 60.9116C207.455 60.5094 208.196 60.3083 209.012 60.3083C209.633 60.3083 210.225 60.4462 210.788 60.722C211.351 60.9863 211.799 61.3426 212.132 61.7908V57.257H214.58V70.0137H212.132V68.6001C211.833 69.0713 211.414 69.4505 210.874 69.7379C210.334 70.0252 209.707 70.1688 208.995 70.1688C208.19 70.1688 207.455 69.962 206.788 69.5482C206.122 69.1345 205.593 68.5541 205.202 67.8071C204.823 67.0486 204.633 66.1809 204.633 65.2041ZM212.15 65.2385C212.15 64.6524 212.035 64.1525 211.805 63.7388C211.575 63.3136 211.265 62.9918 210.874 62.7734C210.483 62.5436 210.064 62.4286 209.615 62.4286C209.167 62.4286 208.754 62.5378 208.374 62.7562C207.995 62.9745 207.685 63.2963 207.443 63.7215C207.214 64.1353 207.099 64.6294 207.099 65.2041C207.099 65.7787 207.214 66.2844 207.443 66.7211C207.685 67.1463 207.995 67.4738 208.374 67.7037C208.765 67.9335 209.179 68.0485 209.615 68.0485C210.064 68.0485 210.483 67.9393 210.874 67.7209C211.265 67.4911 211.575 67.1693 211.805 66.7556C212.035 66.3303 212.15 65.8247 212.15 65.2385Z" fill="white"/>
</svg>
