<svg width="24" height="24" viewBox="0 0 24 24" fill="none" xmlns="http://www.w3.org/2000/svg">
<path d="M16 22.25H3C2.31614 22.25 1.75 21.6839 1.75 21V8C1.75 5.87378 2.30947 4.33263 3.32105 3.32105C4.33263 2.30947 5.87378 1.75 8 1.75H16C18.1262 1.75 19.6674 2.30947 20.6789 3.32105C21.6905 4.33263 22.25 5.87378 22.25 8V16C22.25 18.1262 21.6905 19.6674 20.6789 20.6789C19.6674 21.6905 18.1262 22.25 16 22.25ZM8 2.25C6.14167 2.25 4.67505 2.68285 3.67895 3.67895C2.68285 4.67505 2.25 6.14167 2.25 8V21C2.25 21.4161 2.58386 21.75 3 21.75H16C17.8583 21.75 19.325 21.3172 20.3211 20.3211C21.3172 19.325 21.75 17.8583 21.75 16V8C21.75 6.14167 21.3172 4.67505 20.3211 3.67895C19.325 2.68285 17.8583 2.25 16 2.25H8Z" fill="#292D32" stroke="#191D23"/>
<path d="M6.76381 15.8465L6.76385 15.8465L6.7648 15.8398L7.0448 13.8598L7.04492 13.8589C7.09016 13.5347 7.31153 13.0851 7.54329 12.8534L12.7333 7.66336C13.5384 6.8583 14.2221 6.69581 14.7671 6.77021C15.3443 6.84901 15.8813 7.20847 16.3362 7.66336C17.0373 8.36445 17.293 9.03492 17.2322 9.65066L17.2318 9.65454C17.1862 10.1564 16.9189 10.6739 16.3348 11.2676L11.1462 16.4563C10.9145 16.688 10.4744 16.9103 10.135 16.9654L8.19173 17.2402C8.14649 17.2411 8.10297 17.2434 8.06834 17.2452L8.06347 17.2455C8.01324 17.2481 7.97923 17.2498 7.94975 17.2498C7.6042 17.2498 7.30215 17.1267 7.08052 16.9135C6.82358 16.6548 6.69663 16.2794 6.76381 15.8465ZM13.1009 8.00157L13.1009 8.00154L13.0962 8.00625L7.90619 13.1963C7.80349 13.299 7.7235 13.4467 7.67874 13.5376C7.63144 13.6335 7.57069 13.7745 7.54781 13.9004L7.54605 13.9101L7.54467 13.9198L7.26467 15.8998L7.26324 15.9099L7.26223 15.9201C7.25451 15.9972 7.25218 16.0897 7.26697 16.1844C7.2797 16.266 7.31605 16.4232 7.44617 16.5534C7.57626 16.6835 7.73348 16.7198 7.81504 16.7326C7.90978 16.7474 8.00231 16.745 8.07949 16.7373L8.08964 16.7363L8.09974 16.7349L10.0798 16.4549L10.0798 16.455L10.0919 16.453C10.227 16.4305 10.3708 16.3683 10.4683 16.3195C10.5626 16.2724 10.7035 16.1932 10.8033 16.0934L15.9933 10.9034C16.3972 10.4995 16.6997 10.0655 16.7473 9.58956L16.7473 9.58956L16.7478 9.58376C16.7978 9.01728 16.4643 8.47729 15.9933 8.00626L15.9934 8.00616L15.985 7.99813C15.5236 7.55773 15.0515 7.24981 14.5297 7.24981C13.9389 7.24981 13.4784 7.634 13.1009 8.00157Z" fill="#292D32" stroke="#191D23"/>
<path d="M15.4198 12.5797C15.3498 12.5797 15.2798 12.5697 15.2198 12.5497C13.4098 12.0397 11.9598 10.5997 11.4498 8.77972C11.3398 8.37972 11.5698 7.96972 11.9698 7.84972C12.3698 7.73972 12.7798 7.96972 12.8898 8.36972C13.2598 9.67972 14.3098 10.7297 15.6198 11.0997C16.0198 11.2097 16.2498 11.6297 16.1398 12.0297C16.0498 12.3597 15.7498 12.5797 15.4198 12.5797Z" fill="#292D32"/>
</svg>
