<svg width="22" height="22" viewBox="0 0 22 22" fill="none" xmlns="http://www.w3.org/2000/svg">
<path d="M8.29506 20.6261L8.29505 20.6261L8.28974 20.6276C7.78935 20.7626 7.27942 20.6908 6.84725 20.4315L6.84729 20.4315L6.83943 20.4269L5.11942 19.4369L5.11883 19.4366C4.62587 19.1538 4.26895 18.6941 4.11296 18.1308C3.96627 17.5652 4.04116 16.9915 4.32369 16.4991L4.32465 16.4974C4.48974 16.2071 4.60884 15.9078 4.656 15.6181C4.70286 15.3303 4.68369 15.0144 4.52135 14.7374C4.21133 14.2086 3.53815 14.0303 2.9 14.0303C1.71614 14.0303 0.75 13.0641 0.75 11.8803V10.1203C0.75 8.93643 1.71614 7.97029 2.9 7.97029C3.53815 7.97029 4.21133 7.79201 4.52135 7.26315C4.8349 6.72827 4.64497 6.04869 4.32247 5.49934C4.04025 5.00616 3.96658 4.4227 4.11336 3.86823L4.11381 3.8665C4.25952 3.30793 4.61339 2.84932 5.1158 2.5657L5.1158 2.56571L5.11834 2.56425L6.84834 1.57425L6.84837 1.57431L6.85501 1.57037C7.74208 1.04441 8.92719 1.34744 9.46961 2.26478L9.4696 2.26478L9.47125 2.26754L9.58927 2.46422C9.92002 3.0344 10.4019 3.47529 11.015 3.47529C11.6294 3.47529 12.1119 3.03264 12.4427 2.4608C12.4427 2.46075 12.4428 2.46069 12.4428 2.46064L12.5513 2.27315C12.5516 2.27277 12.5518 2.2724 12.552 2.27203C13.0945 1.34804 14.277 1.04472 15.1739 1.5797L15.1738 1.57975L15.1806 1.58363L16.9006 2.57363L16.9012 2.57397C17.3941 2.85682 17.7511 3.3165 17.907 3.87976C18.0537 4.44537 17.9788 5.01906 17.6963 5.51145L17.6954 5.51313C17.5303 5.80348 17.4112 6.10274 17.364 6.39245C17.3171 6.68027 17.3363 6.99621 17.4987 7.27315C17.8087 7.80201 18.4819 7.98029 19.12 7.98029C20.3039 7.98029 21.27 8.94643 21.27 10.1303V11.8903C21.27 13.0741 20.3039 14.0403 19.12 14.0403C18.4818 14.0403 17.8087 14.2186 17.4987 14.7474C17.1851 15.2823 17.375 15.9619 17.6975 16.5113C17.9824 17.0089 18.0608 17.5903 17.9084 18.1357L17.9084 18.1357L17.9062 18.1441C17.7605 18.7026 17.4066 19.1613 16.9042 19.4449L16.9017 19.4463L15.1751 20.4344C14.8657 20.6047 14.5395 20.6903 14.21 20.6903C14.05 20.6903 13.8823 20.6678 13.7042 20.6259C13.2097 20.4882 12.8 20.1784 12.5387 19.743L12.4207 19.5463C12.0899 18.9761 11.6081 18.5353 10.995 18.5353C10.3806 18.5353 9.89801 18.978 9.56719 19.5499L9.45923 19.7364C9.45893 19.7369 9.45864 19.7374 9.45834 19.738C9.19312 20.1871 8.7813 20.5007 8.29506 20.6261ZM12.8567 19.2898L12.8573 19.2908L12.9659 19.4784C12.9661 19.4788 12.9664 19.4793 12.9667 19.4797C13.1561 19.8104 13.4704 20.0433 13.8387 20.1354C14.1931 20.2239 14.5696 20.1841 14.8933 19.9914L16.6199 18.9934C16.9901 18.7798 17.2775 18.4228 17.3931 17.9891C17.5063 17.5647 17.451 17.1181 17.2331 16.7404L17.2322 16.7389C16.7242 15.8655 16.7069 15.0509 17.0341 14.4784C17.3586 13.9105 18.0688 13.5203 19.09 13.5203C20.0061 13.5203 20.74 12.7864 20.74 11.8703V10.1103C20.74 9.20698 20.009 8.46029 19.09 8.46029C18.0688 8.46029 17.3586 8.0701 17.0341 7.50222C16.7069 6.92964 16.7242 6.11507 17.2322 5.24167L17.2331 5.24015C17.451 4.86247 17.5063 4.4159 17.3931 3.99146C17.2776 3.55843 17.0025 3.21625 16.642 2.99446L16.6353 2.99028L16.6283 2.98632L14.903 1.99899C14.2278 1.59505 13.3551 1.83647 12.9595 2.50592L12.9595 2.50591L12.9573 2.50977L12.8473 2.69977L12.8467 2.7008C12.3372 3.58564 11.6503 4.00029 10.99 4.00029C10.3308 4.00029 9.64489 3.58692 9.13568 2.70492L9.02811 2.50933L9.024 2.50186L9.01965 2.49454C8.6304 1.84062 7.76766 1.60955 7.09931 1.99767C7.0991 1.99779 7.0989 1.99791 7.09869 1.99803L5.37014 2.99719C5.37005 2.99725 5.36995 2.9973 5.36986 2.99735C5.36983 2.99737 5.36981 2.99739 5.36978 2.9974C4.99973 3.21102 4.7125 3.56788 4.59688 4.00146C4.4837 4.4259 4.53902 4.87247 4.7569 5.25015L4.75779 5.25167C5.26579 6.12507 5.28306 6.93964 4.95588 7.51222C4.63137 8.0801 3.9212 8.47029 2.9 8.47029C1.98386 8.47029 1.25 9.20414 1.25 10.1203V11.8803C1.25 12.7836 1.98103 13.5303 2.9 13.5303C3.9212 13.5303 4.63137 13.9205 4.95588 14.4884C5.28306 15.0609 5.26579 15.8755 4.75779 16.7489L4.75691 16.7504C4.53902 17.1281 4.4837 17.5747 4.59688 17.9991C4.71235 18.4321 4.98753 18.7743 5.34795 18.9961L5.35474 19.0003L5.36166 19.0043L7.08504 19.9905C7.41615 20.1922 7.80356 20.2354 8.15373 20.1447C8.53454 20.0488 8.836 19.799 9.02513 19.4935L9.02902 19.4872L9.03271 19.4808L9.14221 19.2917C9.14229 19.2915 9.14236 19.2914 9.14244 19.2913C9.65368 18.4125 10.3419 17.9903 11 17.9903C11.6603 17.9903 12.3472 18.4049 12.8567 19.2898Z" fill="#292D32" stroke="#191D23"/>
</svg>
